<svg xmlns="http://www.w3.org/2000/svg" viewBox="0 0 46 46">
  <g stroke="none" stroke-width="1" fill-rule="evenodd" fill="#5299FF">
    <path opacity="0.3" d="M1.95750413,5.07246377 L27.732257,5.07246377 C29.1846101,5.07246377 30.7155089,6.38891119 31.1514196,8.012932 L40.4631933,42.7117057 C40.8989178,44.3357265 40.0747452,45.6521739 38.622206,45.6521739 L12.8476392,45.6521739 C11.3951001,45.6521739 9.8642012,44.3357265 9.42847668,42.7117057 L0.116516827,8.012932 C-0.319207698,6.38891119 0.504964963,5.07246377 1.95750413,5.07246377" />
    <path d="M7.0299679,0 L32.8047208,0 C34.2570739,0 35.7879727,1.31644742 36.2238834,2.94046823 L45.5356571,37.6392419 C45.9713816,39.2632627 45.147209,40.5797101 43.6946698,40.5797101 L17.920103,40.5797101 C16.4675638,40.5797101 14.936665,39.2632627 14.5009404,37.6392419 L5.1889806,2.94046823 C4.75325607,1.31644742 5.57742873,0 7.0299679,0" />
  </g>
</svg>